Coordinates
version=1
nRows=14
nColumns=40
inDegrees=yes

Units are S.I. units (second, meters, Newtons, ...)
Angles are in degrees.

endheader
time	pelvis_tilt	pelvis_list	pelvis_rotation	pelvis_tx	pelvis_ty	pelvis_tz	hip_flexion_r	hip_adduction_r	hip_rotation_r	knee_angle_r	knee_angle_r_beta	ankle_angle_r	subtalar_angle_r	mtp_angle_r	hip_flexion_l	hip_adduction_l	hip_rotation_l	knee_angle_l	knee_angle_l_beta	ankle_angle_l	subtalar_angle_l	mtp_angle_l	lumbar_extension	lumbar_bending	lumbar_rotation	arm_flex_r	arm_add_r	arm_rot_r	elbow_flex_r	pro_sup_r	wrist_flex_r	wrist_dev_r	arm_flex_l	arm_add_l	arm_rot_l	elbow_flex_l	pro_sup_l	wrist_flex_l	wrist_dev_l
     12.70000000	     -2.88995070	     -4.74924018	     -2.81907934	      1.00982964	      0.93781773	      0.44596732	     25.48887631	     -6.05268418	     -4.87854768	     62.28858498	     62.28858498	      4.11692024	     -4.65575794	     -2.84936276	     10.99010987	     -4.58698564	     -9.85560753	     19.78396329	     19.78396329	     14.23083669	     -7.03048418	      1.60766259	    -10.83259341	      5.46798979	      1.23569388	     -3.36126425	    -13.28415632	     -1.57204662	     29.87576885	     45.95353374	      0.00000000	      0.00000000	     12.78383526	    -16.89522071	     -5.85212271	     62.25595059	     46.32614084	      0.00000000	      0.00000000
     12.71300000	     -2.97710141	     -4.86452475	     -3.12437284	      1.00867376	      0.93824966	      0.44617573	     26.44169463	     -5.75343868	     -4.94991826	     60.97301368	     60.97301368	      4.29754368	     -4.90454962	     -2.86843522	     10.41436949	     -4.66098855	    -10.04074100	     19.20134926	     19.20134926	     14.32043615	     -7.02785925	      1.67517532	    -10.83440381	      5.43991543	      1.17610753	     -4.31127604	    -13.07949905	     -1.51843525	     29.21019350	     45.97223202	      0.00000000	      0.00000000	     13.78258637	    -17.08148512	     -6.34202055	     62.61486163	     46.39089873	      0.00000000	      0.00000000
     12.72600000	     -3.02013550	     -5.01928667	     -3.41218489	      1.00757481	      0.93870244	      0.44642885	     27.20740758	     -5.36823093	     -5.02632902	     59.42103071	     59.42103071	      4.42606875	     -5.19493339	     -2.81647652	      9.78138510	     -4.78268121	    -10.26443058	     18.60694834	     18.60694834	     14.40273692	     -6.93352130	      1.63835863	    -10.89617817	      5.45716645	      1.03282214	     -5.30102787	    -12.89796991	     -1.51016942	     28.92688072	     45.97648876	      0.00000000	      0.00000000	     14.66092928	    -17.31050636	     -6.88157133	     63.13045849	     46.45841619	      0.00000000	      0.00000000
     12.73900000	     -3.12216072	     -4.99542880	     -3.72880241	      1.00639521	      0.93871613	      0.44660368	     28.01453451	     -5.18198716	     -5.01108814	     57.78190488	     57.78190488	      4.63784028	     -5.12199898	     -2.68300930	      9.45661889	     -4.74595346	    -10.48503951	     18.46566401	     18.46566401	     14.60322652	     -7.02124629	      1.56760376	    -10.80370493	      5.29020106	      0.57821804	     -5.99608070	    -12.78224856	     -1.50315791	     28.74088753	     45.97770760	      0.00000000	      0.00000000	     15.38127651	    -17.75240851	     -7.10690607	     63.41984944	     46.48695117	      0.00000000	      0.00000000
     12.75200000	     -3.07460165	     -5.28899106	     -4.01978218	      1.00539750	      0.93931133	      0.44715199	     28.36620098	     -4.53448287	     -5.09793091	     55.65078379	     55.65078379	      4.68277839	     -5.45425710	     -2.47532198	      8.52057010	     -4.99658476	    -10.78952150	     17.47916443	     17.47916443	     14.54530920	     -6.72968580	      1.36395423	    -11.10510879	      5.44667472	      0.89520642	     -7.30152737	    -12.60736500	     -1.52335488	     28.85916757	     45.96372287	      0.00000000	      0.00000000	     16.34456422	    -17.68897396	     -8.08520095	     64.38907943	     46.59815217	      0.00000000	      0.00000000
     12.76500000	     -3.15331771	     -5.41143126	     -4.33553205	      1.00427308	      0.93935758	      0.44764100	     28.79939887	     -4.09566210	     -5.13542329	     53.34258933	     53.34258933	      4.75039795	     -5.33535603	     -2.46357736	      7.97848393	     -5.10366738	    -11.08277676	     16.94194712	     16.94194712	     14.37446034	     -6.69936015	      0.58556297	    -11.18797710	      5.44809778	      0.83211205	     -8.44737172	    -12.55847691	     -1.65034210	     29.73824156	     45.92849037	      0.00000000	      0.00000000	     17.02954895	    -17.57781482	     -9.44494703	     65.15172377	     46.74969752	      0.00000000	      0.00000000
     12.77800000	     -3.31370697	     -5.53233348	     -4.60993133	      1.00309491	      0.93915438	      0.44817185	     29.19537991	     -3.67185737	     -5.26932708	     50.77748981	     50.77748981	      4.86564525	     -4.98780086	     -2.17475259	      7.64784618	     -5.22249282	    -11.23509461	     16.63540728	     16.63540728	     14.51453742	     -6.75511748	      0.48148584	    -11.12685386	      5.45280357	      0.60363313	     -9.06386994	    -12.42687732	     -1.62648952	     29.65251595	     45.92550572	      0.00000000	      0.00000000	     17.66970555	    -17.92352711	     -9.69533405	     65.49000514	     46.78313750	      0.00000000	      0.00000000
     12.79100000	     -3.26345325	     -5.64758882	     -4.90653359	      1.00211158	      0.93922149	      0.44876373	     29.14885732	     -3.19226161	     -5.32453026	     47.80466773	     47.80466773	      4.97666953	     -4.53061903	     -1.96719119	      6.99113904	     -5.30913425	    -11.50682586	     16.17078568	     16.17078568	     14.57089941	     -6.69530837	      0.16183139	    -11.34843288	      5.50291979	      0.69044299	     -9.71888633	    -12.41465023	     -1.62055706	     29.76645262	     45.91616386	      0.00000000	      0.00000000	     18.35429762	    -17.87338058	    -10.18861357	     66.07056995	     46.84532678	      0.00000000	      0.00000000
     12.80400000	     -3.52065658	     -5.67711500	     -5.18689185	      1.00086988	      0.93867387	      0.44953701	     29.38028045	     -2.77469709	     -5.42704711	     44.67226572	     44.67226572	      5.08860457	     -3.87610540	     -1.67230393	      6.82404556	     -5.36295758	    -11.70737068	     15.94959819	     15.94959819	     14.67935113	     -6.74073894	     -0.02968258	    -11.19313478	      5.40500280	      0.56516238	    -10.14600906	    -12.27156197	     -1.60955552	     29.78892143	     45.91119482	      0.00000000	      0.00000000	     18.92081722	    -18.10625066	    -10.46033558	     66.39669037	     46.87943433	      0.00000000	      0.00000000
     12.81700000	     -3.65964969	     -5.73274619	     -5.45035989	      0.99980472	      0.93825214	      0.45032206	     29.26601710	     -2.32469945	     -5.61261196	     41.19117197	     41.19117197	      5.15982449	     -3.01910406	     -1.36015060	      6.51018891	     -5.43702758	    -11.92001497	     15.71993609	     15.71993609	     14.80557682	     -6.74480171	     -0.27621933	    -11.19007355	      5.38304593	      0.53886646	    -10.47314729	    -12.20922887	     -1.61200450	     29.84226260	     45.90697339	      0.00000000	      0.00000000	     19.44053337	    -18.16680869	    -10.73758702	     66.75284106	     46.91431250	      0.00000000	      0.00000000
     12.83000000	     -3.71753389	     -5.76109378	     -5.69160621	      0.99886483	      0.93787122	      0.45111377	     28.88132435	     -1.90817136	     -5.90743001	     37.44848526	     37.44848526	      5.13379770	     -1.93518324	     -1.11234594	      6.10225976	     -5.48229752	    -12.18192840	     15.49142014	     15.49142014	     14.91933691	     -6.64454805	     -0.65609103	    -11.28063434	      5.34216858	      0.56061044	    -10.74108912	    -12.21359229	     -1.63863851	     29.95660985	     45.90298013	      0.00000000	      0.00000000	     19.92007030	    -18.08840689	    -11.08901596	     67.12177506	     46.95684834	      0.00000000	      0.00000000
     12.84300000	     -3.95794706	     -5.72261490	     -5.92748833	      0.99791071	      0.93714244	      0.45205361	     28.59605523	     -1.48847436	     -6.19903605	     33.61294995	     33.61294995	      5.05402528	     -0.81359700	     -0.68539742	      5.92578792	     -5.48116380	    -12.42630039	     15.30692429	     15.30692429	     15.03553127	     -6.59553469	     -0.93694749	    -11.14409671	      5.25394878	      0.55494849	    -10.83043726	    -12.07995543	     -1.64003783	     30.06238094	     45.89856677	      0.00000000	      0.00000000	     20.32103018	    -18.10101885	    -11.29884926	     67.38445140	     46.98438564	      0.00000000	      0.00000000
     12.85600000	     -4.08905503	     -5.68996067	     -6.12502610	      0.99719598	      0.93652483	      0.45300765	     28.01379232	     -1.07118645	     -6.65566088	     29.65700986	     29.65700986	      4.86018176	      0.51334903	     -0.14933875	      5.62064635	     -5.48328797	    -12.66994823	     15.13708815	     15.13708815	     15.18544719	     -6.47133261	     -1.26049404	    -11.09829170	      5.16268200	      0.55733718	    -10.83414675	    -12.03115561	     -1.65422514	     30.16700891	     45.89608337	      0.00000000	      0.00000000	     20.64872819	    -18.03804164	    -11.46953602	     67.60219317	     47.00821418	      0.00000000	      0.00000000
     12.86900000	     -4.14318442	     -5.60814994	     -6.27892774	      0.99671661	      0.93591669	      0.45394248	     27.24704543	     -0.71710535	     -7.26697344	     25.77248324	     25.77248324	      4.59102577	      2.03839801	      0.47963786	      5.21633426	     -5.43067993	    -12.97065631	     14.95494297	     14.95494297	     15.36417584	     -6.20752442	     -1.67097309	    -11.10821732	      5.04415682	      0.55973971	    -10.74549514	    -12.02230268	     -1.67733225	     30.29058446	     45.89468742	      0.00000000	      0.00000000	     20.91708897	    -17.93478364	    -11.62747130	     67.75693124	     47.03163320	      0.00000000	      0.00000000
